<?xml version="1.0" encoding="UTF-8"?>
<!DOCTYPE svg PUBLIC "-//W3C//DTD SVG 1.1//EN" "http://www.w3.org/Graphics/SVG/1.1/DTD/svg11.dtd">
<!-- Creator: CorelDRAW -->
<svg xmlns="http://www.w3.org/2000/svg" xml:space="preserve" width="469px" height="469px" version="1.1" style="shape-rendering:geometricPrecision; text-rendering:geometricPrecision; image-rendering:optimizeQuality; fill-rule:evenodd; clip-rule:evenodd"
viewBox="0 0 398.88 398.87"
 xmlns:xlink="http://www.w3.org/1999/xlink"
 xmlns:xodm="http://www.corel.com/coreldraw/odm/2003">
 <defs>
  <style type="text/css">
   <![CDATA[
    .fil1 {fill:black;fill-rule:nonzero}
    .fil4 {fill:#ECECEC;fill-rule:nonzero}
    .fil3 {fill:#F2F2F2;fill-rule:nonzero}
    .fil2 {fill:#FDFDFD;fill-rule:nonzero}
    .fil0 {fill:#FEFEFE;fill-rule:nonzero}
   ]]>
  </style>
 </defs>
 <g id="Слой_x0020_1">
  <metadata id="CorelCorpID_0Corel-Layer"/>
  <path class="fil0" d="M398.5 199.36c0,60.68 -0.46,121.36 0.34,182.01 0.16,13.17 -1.33,17.61 -16.41,17.5 -122.45,-0.82 -244.9,-0.72 -367.32,-0.08 -13.27,0.08 -14.87,-4.01 -14.81,-15.61 0.39,-122.45 0.69,-244.9 -0.3,-367.35 -0.13,-16.54 6.46,-15.64 18.24,-15.59 121.34,0.35 242.7,0.56 364.04,-0.24 14.78,-0.1 16.77,3.86 16.59,17.34 -0.85,60.65 -0.37,121.34 -0.37,182.02l0 0z"/>
  <path class="fil1" d="M198.32 358.61c-25.4,0 -50.79,-0.5 -76.18,0.13 -26.17,0.64 -41.27,-11.91 -47.52,-36.64 -11.01,-43.48 -12.39,-89.29 -32.84,-130.59 -2.79,-5.61 0.72,-15.02 2.76,-22.25 14.31,-51.22 46.96,-86.19 95.65,-106.56 15.56,-6.51 32.1,-8.32 42.26,-26.96 7.97,-14.65 27.99,-12.79 35.97,1.52 8.91,15.92 22.34,18.5 36.43,23.79 40.98,15.37 71.93,42.55 90.23,82.6 9.97,21.8 15.92,41.45 3.69,68.2 -14.28,31.25 -16.94,68.1 -22.97,102.8 -5.51,31.6 -22.55,45.79 -54.65,44.2 -24.22,-1.2 -48.55,-0.24 -72.86,-0.24l0.03 0z"/>
  <path class="fil2" d="M319.44 212.71c-7.29,35.68 -14.12,68.89 -20.82,102.16 -2.23,11.09 -7.79,18.96 -20.08,16.96 -18.05,-2.95 -5.77,-15.82 -5.71,-23.42 0.13,-13.06 4.17,-26.04 5.66,-39.17 0.98,-8.64 -2.95,-15.43 -12.5,-15.98 -7.87,-0.46 -11.91,5.18 -13.19,12.12 -2.97,16.28 -5.87,32.58 -7.84,48.96 -1.62,13.45 -7.61,18.88 -21.62,18 -15.26,-0.96 -10,-11.67 -10.37,-19.15 -0.72,-14.3 -0.29,-28.69 -0.29,-43.02 0,-8.56 -2.85,-16.17 -12.05,-16.75 -11.59,-0.72 -14.25,8.03 -14.3,17.73 -0.08,14.36 0.18,28.69 -0.16,43.05 -0.22,7.98 3.4,18.03 -11.49,18.16 -11.97,0.11 -18.54,-3.32 -20.16,-15.76 -1.99,-15.29 -5.08,-30.45 -7.36,-45.69 -1.39,-9.28 -3.59,-19.04 -15.11,-17.44 -13.53,1.86 -12.44,13.19 -10.9,23.35 1.84,11.96 4.87,23.85 5.69,35.87 0.43,6.14 8.96,15.63 -4.09,18.8 -9.9,2.42 -18.49,-1.25 -20.8,-11.28 -7.47,-32.17 -14.04,-64.56 -20.69,-96.9 -2.71,-13.24 7.58,-10.53 14.47,-10.55 73.84,-0.16 147.66,-0.11 223.71,-0.11l0 0.06z"/>
  <path class="fil3" d="M225.68 160.91c-3.86,17.89 -13.35,26.22 -28.4,24.78 -12.87,-1.22 -22.26,-8.62 -23.11,-24.78l51.51 0z"/>
  <path class="fil4" d="M146.55 144.98c-1.84,9.23 -5.8,14.28 -13.25,14.06 -9.09,-0.26 -14.06,-6.25 -12.63,-14.97 1.09,-6.78 6.52,-11.35 14.04,-10.42 7.45,0.93 10.11,6.78 11.86,11.33l-0.02 0z"/>
  <path class="fil4" d="M279.13 145.38c-1.92,8.98 -5.93,14.01 -13.43,13.64 -9.09,-0.43 -13.96,-6.54 -12.44,-15.19 1.19,-6.7 6.75,-11.35 14.25,-10.21 7.26,1.09 10.21,6.78 11.62,11.73l0 0.03z"/>
 </g>
</svg>
